<?xml version="1.0" encoding="UTF-8"?><svg version="1.1" xmlns="http://www.w3.org/2000/svg" xmlns:xlink="http://www.w3.org/1999/xlink" viewBox="0 0 1280 720" width="1280" height="720" x="0px" y="0px">
              
              <!-- ITEM 0 -->
<g>
    <defs>
        
        <clipPath id="clip-path-id-viewbox-item-0">
            <rect x="0.0" y="0.0" width="649.121" height="540.013"/>
        </clipPath>
    </defs>
    <g transform="translate(770.0 322.0) rotate(0.0 216.0 180.0) scale(0.6655153661643978 0.6666506176703153)">
        <g clip-path="url(#clip-path-id-viewbox-item-0)" transform="translate(-0.0 -0.0)">

  
  <g>
    <path d="M76.07,3H573.051a73.07,73.07,0,0,1,73.07,73.07V537.013a0,0,0,0,1,0,0H3a0,0,0,0,1,0,0V76.07A73.07,73.07,0,0,1,76.07,3Z" style="         fill: #fff;       "/>
    <path d="M646.121,540.013H3a3,3,0,0,1-3-3V76.07A76.156,76.156,0,0,1,76.07,0H573.051a76.156,76.156,0,0,1,76.07,76.07V537.013A3,3,0,0,1,646.121,540.013ZM6,534.013H643.121V76.07A70.149,70.149,0,0,0,573.051,6H76.07A70.149,70.149,0,0,0,6,76.07Z" style="         fill: #222433;       "/>
  </g>

        </g>
    </g>
</g>

<!-- ITEM 1 -->
<g>
    <defs>
        
        <clipPath id="clip-path-id-viewbox-item-1">
            <rect x="0.0" y="0.0" width="898.526" height="735.477"/>
        </clipPath>
    </defs>
    <g transform="translate(130.0 80.0) rotate(0.0 300.5 246.0) scale(0.6688732435121522 0.6689536178561668)">
        <g clip-path="url(#clip-path-id-viewbox-item-1)" transform="translate(-0.0 -0.0)">

  
  <g>
    <g>
      <rect x="3" y="3" width="892.526" height="729.477" style="         fill: #fff;       "/>
      <path d="M895.526,735.477H3a3,3,0,0,1-3-3V3A3,3,0,0,1,3,0H895.526a3,3,0,0,1,3,3V732.477A3,3,0,0,1,895.526,735.477ZM6,729.477H892.526V6H6Z" style="         fill: #222433;       "/>
    </g>
    <g>
      <rect x="3" y="3" width="892.526" height="41.873" style="         fill: #fff;       "/>
      <path d="M895.526,47.873H3a3,3,0,0,1-3-3V3A3,3,0,0,1,3,0H895.526a3,3,0,0,1,3,3V44.873A3,3,0,0,1,895.526,47.873ZM6,41.873H892.526V6H6Z" style="         fill: #222433;       "/>
    </g>
    <g>
      <circle cx="34.788" cy="23.936" r="9.593" style="         fill: #fff;       "/>
      <path d="M34.788,36.53A12.594,12.594,0,1,1,47.381,23.936,12.609,12.609,0,0,1,34.788,36.53Zm0-19.187a6.594,6.594,0,1,0,6.593,6.593A6.6,6.6,0,0,0,34.788,17.343Z" style="         fill: #222433;       "/>
    </g>
    <g>
      <circle cx="63.139" cy="23.936" r="9.593" style="         fill: #fff;       "/>
      <path d="M63.14,36.53A12.594,12.594,0,1,1,75.733,23.936,12.609,12.609,0,0,1,63.14,36.53Zm0-19.187a6.594,6.594,0,1,0,6.593,6.593A6.6,6.6,0,0,0,63.14,17.343Z" style="         fill: #222433;       "/>
    </g>
    <g>
      <circle cx="91.996" cy="23.936" r="9.593" style="         fill: #fff;       "/>
      <path d="M92,36.53a12.594,12.594,0,1,1,12.593-12.594A12.609,12.609,0,0,1,92,36.53Zm0-19.187a6.594,6.594,0,1,0,6.593,6.593A6.6,6.6,0,0,0,92,17.343Z" style="         fill: #222433;       "/>
    </g>
  </g>

        </g>
    </g>
</g>

<!-- ITEM 2 -->
<g>
    <defs>
        
        <clipPath id="clip-path-id-viewbox-item-2">
            <rect x="0.0" y="0.0" width="102.014" height="126.459"/>
        </clipPath>
    </defs>
    <g transform="translate(98.0 167.0) rotate(0.0 35.5 43.5) scale(0.695982904307252 0.6879700139966313)">
        <g clip-path="url(#clip-path-id-viewbox-item-2)" transform="translate(-0.0 -0.0)">

  
  <g>
    <g>
      <path d="M84.946,118.388h0a28.567,28.567,0,0,1-39.186-9.333L26.48,77.721,7.2,46.386A28.568,28.568,0,0,1,16.533,7.2h0a28.568,28.568,0,0,1,39.186,9.333L94.279,79.2A28.568,28.568,0,0,1,84.946,118.388Z" style="         fill: #fff;       "/>
      <path d="M70.134,125.6a31.9,31.9,0,0,1-7.4-.875,31.26,31.26,0,0,1-19.528-14.095L4.645,47.958A31.45,31.45,0,0,1,38.745.866,31.265,31.265,0,0,1,58.274,14.96l38.56,62.67a31.52,31.52,0,0,1-10.316,43.313A31.169,31.169,0,0,1,70.134,125.6ZM31.357,5.994A25.363,25.363,0,0,0,6.7,25.563,25.3,25.3,0,0,0,9.755,44.814l38.56,62.669A25.484,25.484,0,0,0,91.724,80.775L53.163,18.105A25.294,25.294,0,0,0,37.355,6.7,25.858,25.858,0,0,0,31.357,5.994Z" style="         fill: #222433;       "/>
    </g>
    <path d="M74.385,47.626,93.942,79.41A28.567,28.567,0,0,1,84.609,118.6h0a28.568,28.568,0,0,1-39.186-9.332L26.143,77.928Z" style="         fill: #5a38fd;       "/>
    <path d="M70.607,126.475A31.49,31.49,0,0,1,43.741,111.5L5.181,48.829a31.484,31.484,0,0,1,53.628-33L97.369,78.5a31.472,31.472,0,0,1-26.762,47.975ZM31.953,6.852A25.514,25.514,0,0,0,10.291,45.684l38.56,62.67a25.512,25.512,0,0,0,35.058,8.35h0a25.567,25.567,0,0,0,8.349-35.059L53.7,18.975A25.5,25.5,0,0,0,31.953,6.852Z" style="         fill: #222433;       "/>
    <g>
      <line x1="73.202" y1="48.973" x2="27.603" y2="77.03" style="         fill: #fff;       "/>
      <path d="M27.606,80.03a3,3,0,0,1-1.575-5.555l45.6-28.057a3,3,0,1,1,3.145,5.11l-45.6,28.056A2.982,2.982,0,0,1,27.606,80.03Z" style="         fill: #222433;       "/>
    </g>
  </g>

        </g>
    </g>
</g>

<!-- ITEM 3 -->
<g>
    <defs>
        
        <clipPath id="clip-path-id-viewbox-item-3">
            <rect x="0.0" y="0.0" width="252.06" height="198.049"/>
        </clipPath>
    </defs>
    <g transform="translate(678.0 157.0) rotate(0.0 -85.0 66.5) scale(-0.6744425930334047 0.6715509798080272)">
        <g clip-path="url(#clip-path-id-viewbox-item-3)" transform="translate(-0.0 -0.0)">

  
  <g>
    <path d="M171.06,3H81A78,78,0,0,0,3,81H3a78,78,0,0,0,78,78h90.06c1,0,1.91,0,2.85-.05a22.669,22.669,0,0,1,18.14,7.85l22.77,26.59a4.78,4.78,0,0,0,8.4-3.11v-42a22.648,22.648,0,0,1,5.84-15.14,77.693,77.693,0,0,0,20-52.1h0A78,78,0,0,0,171.1,3Z" style="         fill: #fff;       "/>
    <path d="M218.446,198.044a7.766,7.766,0,0,1-5.9-2.694l-22.776-26.6a19.584,19.584,0,0,0-15.734-6.8c-.989.053-1.955.053-2.978.053H81A81,81,0,0,1,81,0h90.1a80.989,80.989,0,0,1,60.187,135.149,19.625,19.625,0,0,0-5.067,13.136v42a7.77,7.77,0,0,1-7.774,7.764ZM174.88,155.93a25.523,25.523,0,0,1,19.443,8.911l22.775,26.6a1.781,1.781,0,0,0,3.122-1.166V148.28a25.609,25.609,0,0,1,6.613-17.151A74.993,74.993,0,0,0,171.1,6l-.038-3V6H81a75,75,0,0,0,0,150h90.06c.982,0,1.831,0,2.692-.045C174.128,155.938,174.505,155.93,174.88,155.93Z" style="         fill: #222433;       "/>
  </g>

        </g>
    </g>
</g>

<!-- ITEM 4 -->
<g>
    <defs>
        
        <clipPath id="clip-path-id-viewbox-item-4">
            <rect x="0.0" y="0.0" width="337.586" height="190.01"/>
        </clipPath>
    </defs>
    <g transform="translate(630.0 253.0) rotate(0.0 109.0 61.5) scale(0.6457613763603941 0.6473343508236409)">
        <g clip-path="url(#clip-path-id-viewbox-item-4)" transform="translate(-0.0 -0.0)">


<g>
	<path d="M334.586,187.01h-52.131H27.045L3.275,30.72C3.092,29.517,3,28.302,3,27.085   C3.003,13.781,13.79,2.997,27.095,3h206.67c11.912-0.007,22.04,8.693,23.83,20.47l22.28,146.571h53L334.586,187.01z" style="fill:#FFFFFF;"/>
	<path d="M334.586,190.01H27.045c-1.482,0-2.743-1.083-2.966-2.549L0.309,31.171C0.104,29.824,0,28.449,0,27.084   c0.001-7.235,2.82-14.038,7.938-19.153C13.054,2.817,19.856,0,27.09,0c0.002,0,0.003,0,0.005,0h206.669c0.005,0,0.011,0,0.016,0   c13.491,0,24.752,9.678,26.78,23.019l21.894,144.021h50.421c1.541,0,2.831,1.167,2.985,2.699l1.71,16.969   c0.085,0.844-0.191,1.684-0.76,2.313C336.242,189.651,335.434,190.01,334.586,190.01z M29.623,184.01h301.646l-1.106-10.969   h-50.287c-1.483,0-2.743-1.083-2.966-2.549L254.629,23.921C253.051,13.535,244.282,6,233.779,6c-0.004,0-0.007,0-0.012,0H27.095   c-0.001,0-0.003,0-0.004,0c-5.632,0-10.927,2.192-14.911,6.174C8.196,16.156,6.001,21.452,6,27.085   c0,1.063,0.081,2.133,0.241,3.182L29.623,184.01z" style="fill:#222433;"/>
</g>
<g>
	
		<ellipse transform="matrix(0.7178 -0.6963 0.6963 0.7178 -34.5923 123.5299)" cx="135.08" cy="104.435" rx="16.05" ry="19.4" style="fill:#82B1FF;"/>
</g>

        </g>
    </g>
</g>

<!-- ITEM 5 -->
<g>
    <defs>
        
        <clipPath id="clip-path-id-viewbox-item-5">
            <rect x="0.0" y="0.0" width="767.002" height="794.82"/>
        </clipPath>
    </defs>
    <g transform="translate(584.0 147.0) rotate(0.0 258.5 267.5) scale(0.6740530011655772 0.6731083767393875)">
        <g clip-path="url(#clip-path-id-viewbox-item-5)" transform="translate(-0.0 -0.0)">

  
  <g>
    <path d="M53.771,731.677l19.487-1.255a29.411,29.411,0,0,0,28.327-39.092L89.431,660.141c3.749.075,148.018-34.356,148.831-32.008,18.18,52.491-16.2,73.48-16.4,73.774-6.766,9.936-17.61,16.748-28.322,21.753-10.8,5.047-22.467,6.727-33.65,10.6-11.637,4.028-21.718,10.982-26.79,22.533-4.683,10.662-1.3,23.89-2.271,35.123H18.264C16.186,764.059,26.388,735.831,53.771,731.677Z" style="         fill: #82b1ff;       "/>
    <g>
      <path d="M226.966,277.551c5.1-9.786,46.745-12.058,75.182-16.892-39.78-1.6-80.232.58-82.277-13.546C216.4,223.7,297.509,221.3,326.329,229.322,348.292,235.51,361.452,240,366.4,241.734l-8.7,78Z" style="         fill: #fff;       "/>
      <path d="M357.7,322.739a3,3,0,0,1-.921-.144L226.044,280.406a3,3,0,0,1-1.739-4.242c3.635-6.974,18.249-10.168,41.926-13.5-27.395-.879-47.584-3.078-49.329-15.127-.461-3.107.022-7.736,4.946-12.083,17.735-15.658,81.49-15.653,105.286-9.026,20.841,5.871,34.169,10.333,40.26,12.47a3,3,0,0,1,1.988,3.163l-8.7,78.006a3,3,0,0,1-2.982,2.667ZM232.8,276.282l122.325,39.474,8.025-71.974c-6.77-2.322-19.243-6.389-37.638-11.572-24.771-6.9-84.533-5.64-99.7,7.747-3.151,2.782-3.21,5.165-2.981,6.715,1.314,9.072,30.117,9.734,57.972,10.373,7,.16,14.242.327,21.458.616a3,3,0,0,1,.382,5.956c-7.412,1.26-15.83,2.363-23.971,3.428C262.394,269.178,241.058,271.973,232.8,276.282Z" style="         fill: #222433;       "/>
    </g>
    <path d="M227.728,628.934,87.13,661.7,8,430.641A88.627,88.627,0,0,1,115.551,315.82l128.014,34.052Z" style="         fill: #fff;       "/>
    <path d="M87.128,664.7a3,3,0,0,1-2.836-2.028L5.163,431.613A91.626,91.626,0,0,1,116.357,312.931l127.979,34.041a3,3,0,0,1,2.224,3.069L230.723,629.1a3,3,0,0,1-2.314,2.752l-140.6,32.765A3.02,3.02,0,0,1,87.128,664.7Zm4.445-349.166a85.6,85.6,0,0,0-80.74,114.116L89.089,658.162l135.771-31.64,15.571-274.38L114.78,318.72A86.315,86.315,0,0,0,91.573,315.533Zm136.155,313.4h0Z" style="         fill: #222433;       "/>
    <path d="M232.883,538.663a3,3,0,0,1-2.857-2.088l-23.663-74.049a3,3,0,0,1,5.716-1.827l23.662,74.05a3,3,0,0,1-2.858,3.914Z" style="         fill: #222433;       "/>
    <path d="M89.594,732.427c56.239-8.5,68.989-56.66,68.71-93.581,6.16.156,143.037,7.439,146.089,5.944l-.171,147.125H262.864l.179-38.716-59.855,38.716L47.2,791.82C45.12,764.059,62.211,736.582,89.594,732.427Z" style="         fill: #82b1ff;       "/>
    <path d="M47.884,794.821a3,3,0,0,1-2.989-2.777c-2.314-30.919,17.426-58.409,44.939-62.583,58.094-8.78,66.387-60.528,66.159-90.593a3,3,0,0,1,2.978-3.022h.023a3,3,0,0,1,3,2.977c.121,15.927-2.134,39.086-13.56,58.966-12.062,20.989-31.475,33.641-57.7,37.6C66.3,739.1,48.8,763.786,50.878,791.6a3,3,0,0,1-2.767,3.215C48.034,794.818,47.959,794.821,47.884,794.821Z" style="         fill: #222433;       "/>
    <g>
      <path d="M315.806,591.437l26.186,7.19a139.269,139.269,0,0,0,36.921,5H509.219l-217.177-116.5Z" style="         fill: #fff;       "/>
      <path d="M509.219,606.631H378.913a141.976,141.976,0,0,1-37.718-5.112l-26.183-7.19a3,3,0,0,1-2.131-2.226l-23.765-104.31a3,3,0,0,1,4.344-3.309l217.177,116.5a3,3,0,0,1-1.418,5.643ZM318.332,589.02l24.455,6.714a135.968,135.968,0,0,0,36.126,4.9H497.281L296.43,492.886Z" style="         fill: #222433;       "/>
    </g>
    <path d="M535.658,453.134l-243.9-185.545a88.786,88.786,0,0,0-137.671,68.93L136.9,639.34l177.33,6.043L317.725,524.9l30.311,24.173A248.614,248.614,0,0,0,502.8,603.27h96.5c54.388,0,86.776-60.716,56.466-105.851l-93.67-33.9Z" style="         fill: #fff;       "/>
    <path d="M317.724,528.258a2.986,2.986,0,0,1-1.952-.723l-27.855-23.888a3,3,0,1,1,3.906-4.555l27.855,23.889a3,3,0,0,1-1.954,5.277Z" style="         fill: #222433;       "/>
    <path d="M389.828,227.719l14.445,7.97,104.1-64.651c6.831-4.242,26.248-10.382,34.149-11.878,21.491-4.073,43.727-2.75,53.733,1.825,20.6,9.421,35.256,26.287,45.688,47.391h0l118.985,238.01A64.034,64.034,0,0,1,702.9,537.637a63.253,63.253,0,0,1-30.844-7.963L488.028,428.194a4.306,4.306,0,0,0-1.274-1.736q-39.915-33.937-81.258-66.175c-26.573-20.842-53.116-41.8-77.358-65.369l32.38-58.724A21.571,21.571,0,0,1,389.828,227.719Z" style="         fill: #5a38fd;       "/>
    <path d="M608.261,351.728a2.994,2.994,0,0,1-1.453-.377L434.19,255.624a3,3,0,0,1,2.91-5.248L609.718,346.1a3,3,0,0,1-1.457,5.625Z" style="         fill: #222433;       "/>
    <path d="M561.129,325.186a3,3,0,0,1-2.717-1.727L535.347,274.31a3,3,0,0,1,5.432-2.549l23.064,49.149a3,3,0,0,1-2.714,4.276Z" style="         fill: #222433;       "/>
    <path d="M460.086,269.354c-.091,0-.183,0-.275-.013a3,3,0,0,1-2.716-3.259l.042-.467c.167-1.829.325-3.557.407-5.347a132.546,132.546,0,0,1,1.963-15.942,115,115,0,0,1,60-81.228,3,3,0,0,1,2.775,5.32A109.012,109.012,0,0,0,465.41,245.4a126.706,126.706,0,0,0-1.874,15.163c-.086,1.9-.25,3.7-.423,5.6l-.043.465A3,3,0,0,1,460.086,269.354Z" style="         fill: #222433;       "/>
    <g>
      <g>
        <circle cx="600.514" cy="114.514" r="51.244" style="         fill: #fff;       "/>
        <path d="M600.515,168.758h-.036a54.244,54.244,0,0,1,.034-108.487h.036a54.243,54.243,0,0,1,54.209,54.278l-3,0,3,0a54.243,54.243,0,0,1-54.243,54.209Zm0-102.487a48.244,48.244,0,0,0-.03,96.487h.032a48.244,48.244,0,0,0,.03-96.487Z" style="         fill: #222433;       "/>
      </g>
      <g>
        <path d="M577.071,96.067a54.809,54.809,0,0,1-1.122,12.586h.009A55.286,55.286,0,0,1,573,118.316l6.25,36.144,1.222,8.565a28.4,28.4,0,0,1-56,9.476l-.578-3.285L520.9,152.465A55,55,0,0,1,475.645,68a54.962,54.962,0,0,1,2.341-26.489l12.1-16.956L498.8,19.33" style="         fill: #fff;       "/>
        <path d="M552.45,199.109a31.405,31.405,0,0,1-30.941-26.1l-3.138-17.648a58,58,0,0,1-45.854-88.011,57.974,57.974,0,0,1,2.633-26.819,3,3,0,0,1,.394-.763l12.1-16.956a2.993,2.993,0,0,1,.9-.831l8.714-5.221a3,3,0,1,1,3.084,5.147l-8.178,4.9L480.684,42.891a52.46,52.46,0,0,0-1.619,5.973,51.8,51.8,0,0,0-.456,18.667,3,3,0,0,1-.431,2.073,52.01,52.01,0,0,0,33.343,78.8,52.579,52.579,0,0,0,9.45,1.067,3,3,0,0,1,2.885,2.473l3.564,20.043a25.4,25.4,0,0,0,50.09-8.468l-1.233-8.63-6.236-36.057a3,3,0,0,1,.178-1.644,52.6,52.6,0,0,0,2.756-8.923c.009-.072.021-.145.036-.217a51.862,51.862,0,0,0,1.061-11.9,3,3,0,1,1,6-.158,57.925,57.925,0,0,1-1.137,13.045c-.009.077-.022.153-.038.229a58.418,58.418,0,0,1-2.8,9.38l6.105,35.307,1.236,8.652a31.006,31.006,0,0,1-.287,11.586A31.432,31.432,0,0,1,552.45,199.109Z" style="         fill: #222433;       "/>
      </g>
      <g>
        <path d="M539.665,69.273a51.961,51.961,0,0,1-18.52-14.763c-6.039-7.332-25.332-28.32-25.332-28.32L478,41.511C482.361,28.934,488.4,18,499.8,11.166h0a57.669,57.669,0,0,1,87.08,53.78,18.5,18.5,0,0,1-2.571,7.017" style="         fill: #fff;       "/>
        <path d="M584.3,74.963a3,3,0,0,1-2.435-4.75,15.18,15.18,0,0,0,2.025-5.6,54.671,54.671,0,0,0-82.558-50.874c-6.4,3.832-11.405,9.294-15.54,17.109l8.063-6.934a3,3,0,0,1,4.165.244c.79.86,19.417,21.132,25.439,28.443,5.287,6.419,11.153,11.107,17.435,13.934a3,3,0,1,1-2.462,5.471c-7.131-3.208-13.727-8.454-19.605-15.591-4.786-5.811-18.2-20.53-23.263-26.056L479.953,43.785a3,3,0,0,1-4.79-3.257c3.691-10.638,9.651-23.882,23.09-31.936a60.67,60.67,0,0,1,91.614,56.576c0,.065-.011.129-.02.194a21.1,21.1,0,0,1-3.106,8.351A3,3,0,0,1,584.3,74.963Z" style="         fill: #222433;       "/>
      </g>
      <g>
        <path d="M537.954,80.012a23.631,23.631,0,1,1,29.028,21.258" style="         fill: #fff;       "/>
        <path d="M566.98,104.271a3,3,0,0,1-.687-5.921,20.636,20.636,0,0,0-4.755-40.714h-.013a20.637,20.637,0,0,0-20.579,22.156,3,3,0,1,1-5.984.44,26.636,26.636,0,0,1,26.562-28.6h.018a26.637,26.637,0,0,1,6.13,52.554A3.053,3.053,0,0,1,566.98,104.271Z" style="         fill: #222433;       "/>
      </g>
      <path d="M553.176,85.084a3,3,0,0,1-2.228-5.008l12.066-13.4a3,3,0,1,1,4.459,4.016l-6.749,7.493L571.756,76.9a3,3,0,1,1,.693,5.959l-18.926,2.2A3.119,3.119,0,0,1,553.176,85.084Z" style="         fill: #222433;       "/>
      <path d="M484.464,103.222a2.987,2.987,0,0,1-1.855-.644l-10.866-8.561a3,3,0,0,1-.553-4.144l14.6-19.678a3,3,0,1,1,4.819,3.574l-12.86,17.339,8.578,6.757a3,3,0,0,1-1.859,5.357Z" style="         fill: #222433;       "/>
      <circle cx="501.353" cy="73.911" r="4.042" transform="translate(94.58 376.158) rotate(-45)" style="         fill: #222433;       "/>
      <circle cx="476.856" cy="70.818" r="4.042" transform="translate(89.592 357.93) rotate(-45)" style="         fill: #222433;       "/>
      <path d="M485.855,117.729a14.77,14.77,0,0,1-10.8-4.658l-1.507-1.605a3,3,0,1,1,4.373-4.107l1.506,1.6a8.82,8.82,0,0,0,12.456.382,8.714,8.714,0,0,0,.637-.665l.352-.412a3,3,0,0,1,4.56,3.9l-.358.418A15.087,15.087,0,0,1,496,113.713,14.764,14.764,0,0,1,485.855,117.729Z" style="         fill: #222433;       "/>
      <path d="M522.112,155.433q-.641,0-1.28-.015a3,3,0,0,1,.065-6h.068a51.958,51.958,0,0,0,26.448-6.571,3,3,0,1,1,2.925,5.238A57.932,57.932,0,0,1,522.112,155.433Z" style="         fill: #222433;       "/>
      <g>
        <path d="M649.008,111.393a67.551,67.551,0,1,1-69.246,22.019" style="         fill: #fff;       "/>
        <path d="M631.795,247.366a70.991,70.991,0,0,1-18.217-2.39A70.631,70.631,0,0,1,577.46,131.489a3,3,0,0,1,4.6,3.847,64.618,64.618,0,1,0,66.175-21.044,3,3,0,0,1,1.538-5.8,70.624,70.624,0,0,1-17.982,138.873Z" style="         fill: #222433;       "/>
      </g>
    </g>
    <path d="M314.231,648.744l-.1,0L136.8,642.7a3,3,0,0,1-2.893-3.168l17.185-302.82a91.787,91.787,0,0,1,142.323-71.263c.088.059.172.122.253.188L539.833,468.65a3,3,0,1,1-3.818,4.629L289.972,270.365a85.787,85.787,0,0,0-132.89,66.685L140.07,636.808l171.25,5.836,3.406-117.472a3,3,0,0,1,4.87-2.259l30.31,24.172A246.468,246.468,0,0,0,502.8,600.631h96.5a64.073,64.073,0,0,0,46.893-19.92,66.336,66.336,0,0,0,18.218-45.291,3,3,0,0,1,6,0,72.391,72.391,0,0,1-19.873,49.43A70.017,70.017,0,0,1,599.3,606.631H502.8a252.491,252.491,0,0,1-156.631-54.853L320.55,531.349l-3.32,114.482a3,3,0,0,1-3,2.913Z" style="         fill: #222433;       "/>
  </g>

        </g>
    </g>
</g>

<!-- ITEM 6 -->
<g>
    <defs>
        
        <clipPath id="clip-path-id-viewbox-item-6">
            <rect x="0.0" y="0.0" width="94.72" height="50.34"/>
        </clipPath>
    </defs>
    <g transform="translate(560.0 194.0) rotate(0.0 34.0 18.0) scale(0.7179054054054054 0.7151370679380215)">
        <g clip-path="url(#clip-path-id-viewbox-item-6)" transform="translate(-0.0 -0.0)">


<g>
	<g>
		<path d="M91.72,6H3C1.343,6,0,4.657,0,3s1.343-3,3-3h88.72c1.657,0,3,1.343,3,3S93.377,6,91.72,6z" style="fill:#222433;"/>
	</g>
	<g>
		<path d="M91.72,28.17H3c-1.657,0-3-1.343-3-3s1.343-3,3-3h88.72c1.657,0,3,1.343,3,3S93.377,28.17,91.72,28.17z" style="fill:#222433;"/>
	</g>
	<g>
		<path d="M91.72,50.34H3c-1.657,0-3-1.343-3-3s1.343-3,3-3h88.72c1.657,0,3,1.343,3,3S93.377,50.34,91.72,50.34z" style="fill:#222433;"/>
	</g>
</g>

        </g>
    </g>
</g>

<!-- ITEM 7 -->
<g>
    <defs>
        <clipPath id="clip-path-id-crop-item-7">
          <g transform="scale(1.4766 1.4772242647058824)">
          <rect x="0.0" y="0.0" width="205.0" height="268.0"/>
          </g>
        </clipPath>
        <clipPath id="clip-path-id-viewbox-item-7">
            <rect x="0.0" y="0.0" width="302.703" height="401.805"/>
        </clipPath>
    </defs>
    <g clip-path="url(#clip-path-id-crop-item-7)" transform="translate(996.0 411.0) rotate(0.0 102.5 136.0) scale(0.6772314777190844 0.6769452844041264)">
        <g clip-path="url(#clip-path-id-viewbox-item-7)" transform="translate(-0.0 -0.0)">

  
  <g>
    <g>
      <rect x="76.07" y="3" width="223.633" height="395.805" style="         fill: #fff;       "/>
      <path d="M299.7,401.805H76.07a3,3,0,0,1-3-3V3a3,3,0,0,1,3-3H299.7a3,3,0,0,1,3,3V398.805A3,3,0,0,1,299.7,401.805Zm-220.633-6H296.7V6H79.07Z" style="         fill: #222433;       "/>
    </g>
    <g>
      <path d="M76.07,3h0a73.07,73.07,0,0,1,73.07,73.07V398.8a0,0,0,0,1,0,0H3a0,0,0,0,1,0,0V76.07A73.07,73.07,0,0,1,76.07,3Z" style="         fill: #fff;       "/>
      <path d="M149.14,401.805H3a3,3,0,0,1-3-3V76.07a76.07,76.07,0,0,1,152.14,0V398.805A3,3,0,0,1,149.14,401.805ZM6,395.805H146.14V76.07A70.07,70.07,0,0,0,6,76.07Z" style="         fill: #222433;       "/>
    </g>
  </g>

        </g>
    </g>
</g>

<!-- ITEM 8 -->
<g>
    <defs>
        
        <clipPath id="clip-path-id-viewbox-item-8">
            <rect x="0.0" y="0.0" width="102.014" height="126.459"/>
        </clipPath>
    </defs>
    <g transform="translate(209.0 218.0) rotate(79.20417993624302 35.0 43.5) scale(0.6861803281902484 0.6879700139966313)">
        <g clip-path="url(#clip-path-id-viewbox-item-8)" transform="translate(-0.0 -0.0)">

  
  <g>
    <g>
      <path d="M84.946,118.388h0a28.567,28.567,0,0,1-39.186-9.333L26.48,77.721,7.2,46.386A28.568,28.568,0,0,1,16.533,7.2h0a28.568,28.568,0,0,1,39.186,9.333L94.279,79.2A28.568,28.568,0,0,1,84.946,118.388Z" style="         fill: #fff;       "/>
      <path d="M70.134,125.6a31.9,31.9,0,0,1-7.4-.875,31.26,31.26,0,0,1-19.528-14.095L4.645,47.958A31.45,31.45,0,0,1,38.745.866,31.265,31.265,0,0,1,58.274,14.96l38.56,62.67a31.52,31.52,0,0,1-10.316,43.313A31.169,31.169,0,0,1,70.134,125.6ZM31.357,5.994A25.363,25.363,0,0,0,6.7,25.563,25.3,25.3,0,0,0,9.755,44.814l38.56,62.669A25.484,25.484,0,0,0,91.724,80.775L53.163,18.105A25.294,25.294,0,0,0,37.355,6.7,25.858,25.858,0,0,0,31.357,5.994Z" style="         fill: #222433;       "/>
    </g>
    <path d="M74.385,47.626,93.942,79.41A28.567,28.567,0,0,1,84.609,118.6h0a28.568,28.568,0,0,1-39.186-9.332L26.143,77.928Z" style="         fill: #82b1ff;       "/>
    <path d="M70.607,126.475A31.49,31.49,0,0,1,43.741,111.5L5.181,48.829a31.484,31.484,0,0,1,53.628-33L97.369,78.5a31.472,31.472,0,0,1-26.762,47.975ZM31.953,6.852A25.514,25.514,0,0,0,10.291,45.684l38.56,62.67a25.512,25.512,0,0,0,35.058,8.35h0a25.567,25.567,0,0,0,8.349-35.059L53.7,18.975A25.5,25.5,0,0,0,31.953,6.852Z" style="         fill: #222433;       "/>
    <g>
      <line x1="73.202" y1="48.973" x2="27.603" y2="77.03" style="         fill: #fff;       "/>
      <path d="M27.606,80.03a3,3,0,0,1-1.575-5.555l45.6-28.057a3,3,0,1,1,3.145,5.11l-45.6,28.056A2.982,2.982,0,0,1,27.606,80.03Z" style="         fill: #222433;       "/>
    </g>
  </g>

        </g>
    </g>
</g>

<!-- ITEM 9 -->
<g>
    <defs>
        
        <clipPath id="clip-path-id-viewbox-item-9">
            <rect x="0.0" y="0.0" width="115.382" height="115.382"/>
        </clipPath>
    </defs>
    <g transform="translate(191.0 139.0) rotate(325.4914770123316 39.5 39.5) scale(0.6846821861295522 0.6846821861295522)">
        <g clip-path="url(#clip-path-id-viewbox-item-9)" transform="translate(-0.0 -0.0)">

  
  <g>
    <g>
      <circle cx="57.691" cy="57.691" r="54.691" style="         fill: #fff;       "/>
      <path d="M57.68,115.382a57.67,57.67,0,1,1,.712,0C58.156,115.381,57.917,115.382,57.68,115.382ZM6,58.32a51.752,51.752,0,0,0,51.677,51.062c.214,0,.424,0,.639,0A51.691,51.691,0,1,0,6,58.32Z" style="         fill: #222433;       "/>
    </g>
    <path d="M66.623,114.045a3,3,0,0,1-3-2.98L62.876,3.628A3,3,0,0,1,65.855.607h.022a3,3,0,0,1,3,2.98l.748,107.437a3,3,0,0,1-2.98,3.021Z" style="         fill: #222433;       "/>
    <path d="M50.664,114.045a3,3,0,0,1-3-2.978L46.853,4.451a3,3,0,0,1,6-.045l.811,106.616a3,3,0,0,1-2.977,3.023Z" style="         fill: #222433;       "/>
  </g>

        </g>
    </g>
</g>

<!-- ITEM 10 -->
<g>
    <defs>
        <clipPath id="clip-path-id-crop-item-10">
          <g transform="scale(1.489319526627219 1.4872885572139303)">
          <rect x="0.0" y="0.0" width="507.0" height="399.0"/>
          </g>
        </clipPath>
        <clipPath id="clip-path-id-viewbox-item-10">
            <rect x="0.0" y="0.0" width="755.085" height="597.89"/>
        </clipPath>
    </defs>
    <g clip-path="url(#clip-path-id-crop-item-10)" transform="translate(48.0 169.0) rotate(0.0 253.5 201.0) scale(0.6714475853711833 0.6723644817608591)">
        <g clip-path="url(#clip-path-id-viewbox-item-10)" transform="translate(-0.0 -0.0)">

  
  <g>
    <g>
      <g>
        <path d="M752.085,594.7H267.865V505.487A158.513,158.513,0,0,1,426.378,346.974H593.572A158.513,158.513,0,0,1,752.085,505.487Z" style="         fill: #fff;       "/>
        <path d="M752.085,597.7H267.865a3,3,0,0,1-3-3V505.487c0-89.059,72.454-161.513,161.513-161.513H593.572c89.058,0,161.513,72.454,161.513,161.513V594.7A3,3,0,0,1,752.085,597.7Zm-481.22-6h478.22V505.487c0-85.75-69.763-155.513-155.513-155.513H426.378c-85.75,0-155.513,69.763-155.513,155.513Z" style="         fill: #222433;       "/>
      </g>
      <g>
        <rect x="597.002" y="485.369" width="99.692" height="26.901" style="         fill: #fff;       "/>
        <path d="M696.7,515.27H597a3,3,0,0,1-3-3v-26.9a3,3,0,0,1,3-3H696.7a3,3,0,0,1,3,3v26.9A3,3,0,0,1,696.7,515.27Zm-96.693-6H693.7v-20.9H600Z" style="         fill: #222433;       "/>
      </g>
      <g>
        <line x1="664.924" y1="594.89" x2="676.411" y2="567.191" style="         fill: #fff;       "/>
        <path d="M664.923,597.891a3,3,0,0,1-2.77-4.15l11.487-27.7a3,3,0,1,1,5.542,2.3L667.7,596.04A3,3,0,0,1,664.923,597.891Z" style="         fill: #222433;       "/>
      </g>
      <g>
        <polygon points="288.02 365.286 175.233 369.531 145.603 305.164 154.042 272.988 287.3 270.539 301.866 320.065 288.02 365.286" style="         fill: #fff;       "/>
        <g>
          <path d="M252.2,253.131c-31.032-6.638-59.153,9.507-86.48,4.445-28.532-5.366-47.739-10.787-59.84-7.436a14.236,14.236,0,0,0-10.1,15.82c3.174,22.073,20.6,14.435,59.9,34.606,2.323,1.192-1.963,3.041,7.212.35" style="         fill: #fff;       "/>
          <path d="M157.127,305.3a3.5,3.5,0,0,1-2.02-.572,3.29,3.29,0,0,1-1.361-1.783,200.8,200.8,0,0,0-34.814-13.655c-14.9-4.6-23.891-7.377-26.124-22.906a17.242,17.242,0,0,1,12.268-19.138c10.26-2.838,24.628.067,44.515,4.091,5.273,1.066,10.725,2.169,16.68,3.289,12.425,2.3,25.135,0,38.591-2.426,15.281-2.76,31.082-5.614,47.962-2a3,3,0,0,1-1.255,5.867c-15.723-3.363-30.932-.616-45.64,2.041-14.012,2.53-27.247,4.92-40.759,2.42-6-1.129-11.476-2.236-16.768-3.307-19.071-3.859-32.85-6.646-41.725-4.188a11.231,11.231,0,0,0-7.93,12.5c1.692,11.768,7.624,13.6,21.955,18.025A208.454,208.454,0,0,1,157.05,297.9a4.762,4.762,0,0,1,1.458,1.125c.754-.19,1.876-.5,3.539-.985a3,3,0,0,1,1.689,5.758C160.418,304.767,158.5,305.3,157.127,305.3Z" style="         fill: #222433;       "/>
        </g>
        <g>
          <path d="M173.71,367.943l-15.226,75.069H301.693l3.618-119.363c7.653-46.945-35.6-82.552-82.521-67.977-3.886,1-13.574,5.985-22.112,15.385" style="         fill: #fff;       "/>
          <path d="M301.693,446.011H158.484a3,3,0,0,1-2.94-3.6l15.226-75.069a3,3,0,0,1,5.88,1.194l-14.5,71.471H298.783l3.529-116.453a3.009,3.009,0,0,1,.038-.391c3.369-20.665-3.4-40.081-18.573-53.271-15.935-13.852-38.4-18.1-60.1-11.358l-.145.041c-3.177.814-12.4,5.429-20.636,14.5a3,3,0,0,1-4.441-4.034c8.835-9.728,18.862-15.032,23.511-16.253,23.673-7.333,48.247-2.63,65.745,12.581,16.727,14.541,24.226,35.878,20.59,58.567L304.692,443.1A3,3,0,0,1,301.693,446.011Z" style="         fill: #222433;       "/>
        </g>
        <g>
          <path d="M157.489,312.094c-36.137-4.133-117.818-42.355-140.3-35.768C6.366,279.5-1.277,293.158,5.648,302.055c14.652,18.827,74.321,40.961,148.59,61.788,3.884,1.089,21.449,5.8,25.407,6.883" style="         fill: #fff;       "/>
          <path d="M179.647,373.727a3.021,3.021,0,0,1-.793-.107c-1.468-.4-4.81-1.3-8.631-2.333-6.388-1.723-14.339-3.866-16.8-4.555C67.491,342.633,16.974,321.493,3.281,303.9-.05,299.618-.885,294.165.93,288.543a23.665,23.665,0,0,1,15.413-15.1c13.727-4.022,45.229,6.6,78.581,17.846,23.445,7.9,47.689,16.08,62.906,17.82a3,3,0,1,1-.682,5.961c-15.849-1.813-40.4-10.09-64.141-18.1-31-10.453-63.064-21.26-74.978-17.773A17.757,17.757,0,0,0,6.64,290.385a10.347,10.347,0,0,0,1.375,9.828c12.708,16.327,63.551,37.331,147.033,60.742,2.427.68,10.362,2.82,16.737,4.539,3.83,1.033,7.18,1.936,8.651,2.339a3,3,0,0,1-.789,5.894Z" style="         fill: #222433;       "/>
        </g>
        <g>
          <path d="M169.95,302.055c-34.47-3.655-109.2-45.127-122.165-41.7A17.911,17.911,0,0,0,36.763,285.9c11.813,22.151,68.091,49.79,142.882,84.821" style="         fill: #fff;       "/>
          <path d="M179.643,373.727a3,3,0,0,1-1.27-.284C101.631,337.5,46.362,310.28,34.116,287.317a20.7,20.7,0,0,1-.632-18.117,20.46,20.46,0,0,1,13.534-11.741c6.812-1.8,23.074,4.845,51.228,16.753,25.477,10.774,54.353,22.987,72.021,24.86a3,3,0,0,1-.633,5.967c-18.553-1.968-47.864-14.364-73.725-25.3-19.778-8.364-42.193-17.853-47.357-16.479a14.5,14.5,0,0,0-9.568,8.338,14.737,14.737,0,0,0,.426,12.9c11.351,21.284,68.273,49.215,141.508,83.516a3,3,0,0,1-1.275,5.718Z" style="         fill: #222433;       "/>
        </g>
      </g>
      <g>
        <rect x="125.02" y="413.788" width="210.137" height="180.916" style="         fill: #fff;       "/>
        <path d="M335.157,597.7H125.02a3,3,0,0,1-3-3V413.788a3,3,0,0,1,3-3H335.157a3,3,0,0,1,3,3V594.7A3,3,0,0,1,335.157,597.7Zm-207.137-6H332.157V416.788H128.02Z" style="         fill: #222433;       "/>
      </g>
      <polygon points="502.327 594.704 450.054 346.974 582.226 346.974 533.909 595.297 502.327 594.704" style="         fill: #82b1ff;       "/>
      <g>
        <polygon points="450.054 346.974 370.406 432.226 441.884 479.698 422.522 512.27 502.327 594.704 450.054 346.974" style="         fill: #fff;       "/>
        <path d="M502.328,597.7a3,3,0,0,1-2.157-.913l-79.8-82.434a3,3,0,0,1-.424-3.62l17.9-30.118-69.1-45.894a3,3,0,0,1-.532-4.547l79.648-85.252a3,3,0,0,1,5.128,1.429l52.272,247.73a3,3,0,0,1-2.934,3.619Zm-76.055-85.872,70.97,73.307-48.933-231.9-73.294,78.45L443.544,477.2a3,3,0,0,1,.919,4.032Z" style="         fill: #222433;       "/>
      </g>
      <g>
        <polygon points="582.226 346.974 661.874 432.226 590.396 479.698 609.758 512.27 532.13 593.708 582.226 346.974" style="         fill: #fff;       "/>
        <path d="M532.13,596.708a3,3,0,0,1-2.939-3.6l50.095-246.733a3,3,0,0,1,5.132-1.452l79.649,85.252a3,3,0,0,1-.533,4.547l-69.1,45.894,17.9,30.118a3,3,0,0,1-.407,3.6L534.3,595.778A3,3,0,0,1,532.13,596.708Zm51.878-243.432L537.142,584.1l68.875-72.255-18.2-30.615a3,3,0,0,1,.919-4.032l68.529-45.514Z" style="         fill: #222433;       "/>
      </g>
      <g>
        <g>
          <circle cx="606.955" cy="192.521" r="46.559" style="         fill: #fff;       "/>
          <path d="M606.955,242.081a49.56,49.56,0,1,1,49.559-49.56A49.616,49.616,0,0,1,606.955,242.081Zm0-93.119a43.56,43.56,0,1,0,43.559,43.559A43.608,43.608,0,0,0,606.955,148.962Z" style="         fill: #222433;       "/>
        </g>
        <g>
          <path d="M466.712,163.177l-2.118-16.845a29.206,29.206,0,0,1,28.941-32.992l108.486.522a93.239,93.239,0,0,1,.867,47.987,92.5,92.5,0,0,1-23.465,154.584l-.45,35.068c-.449,35.051-28.844,63.168-63.575,62.954h0c-34.8-.215-62.874-28.787-62.8-63.91l.239-108.864-.009-.406" style="         fill: #fff;       "/>
          <path d="M515.789,417.456h-.41c-36.351-.225-65.859-30.243-65.779-66.917l.239-108.863-.008-.333a3,3,0,1,1,6-.136l.01.407L455.6,350.551c-.073,33.378,26.76,60.7,59.816,60.9h.372c32.8,0,59.76-26.833,60.186-59.993l.449-35.068a3,3,0,0,1,1.809-2.716,89.5,89.5,0,0,0,22.693-149.561,3,3,0,0,1-.949-2.987,90.282,90.282,0,0,0-.248-44.28l-106.207-.511H493.4A25.931,25.931,0,0,0,474,125.094a26.47,26.47,0,0,0-6.434,20.864l2.118,16.844a3,3,0,1,1-5.953.748l-2.118-16.844a32.474,32.474,0,0,1,7.9-25.592A31.933,31.933,0,0,1,493.4,110.34h.152l108.486.522a3,3,0,0,1,2.869,2.173,96.227,96.227,0,0,1,1.318,47.755,95.516,95.516,0,0,1-23.824,157.6l-.425,33.146C581.506,387.971,551.854,417.455,515.789,417.456Z" style="         fill: #222433;       "/>
        </g>
        <path d="M560.429,206.185a3,3,0,0,1-.837-5.882l22.466-6.536-24.782-42.936a3,3,0,1,1,5.2-3l26.693,46.249a3,3,0,0,1-1.76,4.381l-26.138,7.6A3.011,3.011,0,0,1,560.429,206.185Z" style="         fill: #222433;       "/>
        <path d="M566.966,243.83a32.825,32.825,0,0,1-24.2-10.759l-4.517-5a3,3,0,0,1,2.225-5.012h52.237a3,3,0,0,1,2.591,4.512,32.528,32.528,0,0,1-19.954,15.164A32.968,32.968,0,0,1,566.966,243.83Zm-19.735-14.767a26.766,26.766,0,0,0,39.59,0Z" style="         fill: #222433;       "/>
        <circle cx="519.212" cy="155.345" r="9.622" style="         fill: #222433;       "/>
        <circle cx="592.711" cy="155.345" r="9.622" style="         fill: #222433;       "/>
        <path d="M543.569,327.6a94.815,94.815,0,0,1-55.045-17.511,3,3,0,0,1,3.488-4.883,89,89,0,0,0,85.71,9.545,3,3,0,1,1,2.328,5.529A94.016,94.016,0,0,1,543.569,327.6Z" style="         fill: #222433;       "/>
        <path d="M414.98,215.29a3,3,0,0,1-.243-5.99l33.429-2.764L413.8,184.419a3,3,0,1,1,3.247-5.045l41.8,26.9a3,3,0,0,1-1.376,5.513l-42.24,3.492C415.147,215.287,415.063,215.29,414.98,215.29Z" style="         fill: #222433;       "/>
        <g>
          <path d="M422.522,149.761l.014-23.593a84.61,84.61,0,0,1,84.61-84.61h29.326A56.676,56.676,0,1,1,624.2,105a37.387,37.387,0,0,1-27.076,11.582H487.746a21.52,21.52,0,0,0-21.521,21.52l0,27.754Z" style="         fill: #fff;       "/>
          <path d="M466.227,168.858a3,3,0,0,1-1.037-.184l-43.7-16.1a3,3,0,0,1-1.963-2.818l.014-23.592a87.709,87.709,0,0,1,87.61-87.608h27.213A59.676,59.676,0,1,1,626.2,107.253a40.147,40.147,0,0,1-29.072,12.331H487.746a18.542,18.542,0,0,0-18.521,18.52l0,27.754a3,3,0,0,1-3,3Zm-40.7-21.189,37.7,13.887,0-23.452a24.548,24.548,0,0,1,24.521-24.52H597.109a34.214,34.214,0,0,0,24.922-10.657,3.013,3.013,0,0,1,.364-.323,53.675,53.675,0,1,0-83.08-60.087,3,3,0,0,1-2.843,2.041H507.146a81.7,81.7,0,0,0-81.61,81.61Z" style="         fill: #222433;       "/>
        </g>
        <g>
          <path d="M486.333,173.821a51.31,51.31,0,1,0-28.921,72.57" style="         fill: #fff;       "/>
          <path d="M440.988,252.1a54.319,54.319,0,1,1,48-79.682,3,3,0,1,1-5.3,2.8,48.312,48.312,0,1,0-27.233,68.328,3,3,0,0,1,1.929,5.682A54.064,54.064,0,0,1,440.988,252.1Z" style="         fill: #222433;       "/>
        </g>
        <path d="M423.346,215.936a3,3,0,0,1-1.29-5.711l30.186-14.347-30-8.568a3,3,0,1,1,1.648-5.769l37.647,10.75a3,3,0,0,1,.464,5.594l-37.364,17.76A3,3,0,0,1,423.346,215.936Z" style="         fill: #222433;       "/>
      </g>
    </g>
    <path d="M752.085,597.7H338.13a3,3,0,0,1,0-6H752.085a3,3,0,0,1,0,6Z" style="         fill: #222433;       "/>
  </g>

        </g>
    </g>
</g>

<!-- ITEM 11 -->
<g>
    <defs>
        
        <clipPath id="clip-path-id-viewbox-item-11">
            <rect x="0.0" y="0.0" width="1702.828" height="267.765"/>
        </clipPath>
    </defs>
    <g transform="translate(108.0 593.0) rotate(351.2099480780425 554.0 87.5) scale(0.65068227677722 0.6535581573394581)">
        <g clip-path="url(#clip-path-id-viewbox-item-11)" transform="translate(-0.0 -0.0)">

  
  <path d="M1699.832,267.766a2.882,2.882,0,0,1-.461-.036L2.543,5.965A3,3,0,1,1,3.457.035L1700.285,261.8a3,3,0,0,1-.453,5.966Z" style="         fill: #222433;       "/>

        </g>
    </g>
</g>

              </svg>